<svg width="65" height="64" viewBox="0 0 65 64" fill="none" xmlns="http://www.w3.org/2000/svg">
<g clip-path="url(#clip0_316_300)">
<path d="M64.5844 49.59C62.2564 50.182 60.8164 49.616 59.5244 47.676L50.3364 34.964L49.0084 33.204L38.2784 47.718C37.0524 49.464 35.7664 50.224 33.4784 49.606L47.2184 31.162L34.4264 14.502C36.6264 14.074 38.1464 14.292 39.4964 16.262L49.0264 29.132L58.6264 16.332C59.8564 14.586 61.1784 13.922 63.3864 14.566L58.4264 21.142L51.7064 29.892C50.9064 30.892 51.0164 31.576 51.7524 32.542L64.5844 49.59ZM0.600412 30.854L1.72441 25.326C4.78441 14.386 17.3244 9.83999 25.9724 16.6C31.0264 20.576 32.2824 26.2 32.0324 32.5H3.54441C3.11641 43.84 11.2784 50.684 21.6844 47.192C25.3344 45.966 27.4844 43.108 28.5604 39.532C29.1064 37.74 30.0104 37.46 31.6944 37.972C30.8344 42.444 28.8944 46.18 24.7944 48.518C18.6684 52.018 9.92441 50.886 5.32441 46.022C2.58441 43.2 1.45241 39.624 0.944412 35.8C0.864412 35.168 0.704412 34.566 0.584412 33.96C0.595078 32.9253 0.600412 31.8907 0.600412 30.856V30.854ZM3.59641 30.094H29.3404C29.1724 21.894 24.0664 16.07 17.0884 16.02C9.42841 15.96 3.92841 21.646 3.59641 30.094Z" fill="black"/>
</g>
<defs>
<clipPath id="clip0_316_300">
<rect width="64" height="64" fill="white" transform="translate(0.584412)"/>
</clipPath>
</defs>
</svg>
