<svg width="31" height="64" viewBox="0 0 31 64" fill="none" xmlns="http://www.w3.org/2000/svg">
<g clip-path="url(#clip0_316_316)">
<path d="M21.2141 7.13325C18.5162 3.94632 16.1929 0.709589 15.7183 0.0373468C15.6683 -0.0124489 15.5934 -0.0124489 15.5434 0.0373468C15.0688 0.709589 12.7455 3.94632 10.0476 7.13325C-13.1098 36.5376 13.6948 56.3813 13.6948 56.3813L13.9196 56.5306C14.1195 59.5932 14.6191 64 14.6191 64H15.6183H16.6176C16.6176 64 17.1172 59.618 17.3171 56.5306L17.5419 56.3565C17.5669 56.3565 44.3715 36.5376 21.2141 7.13325ZM15.6183 55.933C15.6183 55.933 14.4193 54.9123 14.0945 54.3893V54.3397L15.5434 22.3209C15.5434 22.2213 15.6933 22.2213 15.6933 22.3209L17.1422 54.3397V54.3893C16.8174 54.9123 15.6183 55.933 15.6183 55.933Z" fill="#00684A"/>
</g>
<defs>
<clipPath id="clip0_316_316">
<rect width="29.7674" height="64" fill="white" transform="translate(0.622742)"/>
</clipPath>
</defs>
</svg>
