<svg width="57" height="64" viewBox="0 0 57 64" fill="none" xmlns="http://www.w3.org/2000/svg">
<g clip-path="url(#clip0_316_295)">
<path d="M28.2618 64C27.4039 64 26.6031 63.7668 25.8595 63.3586L18.2522 58.7517C17.1082 58.1102 17.6802 57.877 18.0234 57.7603C19.5678 57.2355 19.8537 57.1189 21.4553 56.1859C21.6269 56.0692 21.8556 56.1275 22.0272 56.2442L27.8614 59.8014C28.0903 59.918 28.3762 59.918 28.5478 59.8014L51.3698 46.3307C51.5985 46.214 51.7129 45.9808 51.7129 45.6892V18.806C51.7129 18.5145 51.5985 18.2812 51.3698 18.1646L28.5478 4.75223C28.319 4.63561 28.033 4.63561 27.8614 4.75223L5.03947 18.1646C4.81068 18.2812 4.69628 18.5728 4.69628 18.806V45.6892C4.69628 45.9224 4.81068 46.214 5.03947 46.3307L11.274 50.0045C14.6487 51.7539 16.765 49.7129 16.765 47.6719V21.1386C16.765 20.7888 17.0511 20.4389 17.4514 20.4389H20.3685C20.7117 20.4389 21.0548 20.7305 21.0548 21.1386V47.6719C21.0548 52.2788 18.5953 54.9613 14.3055 54.9613C12.99 54.9613 11.9604 54.9613 9.0433 53.5034L3.03755 50.0045C1.55041 49.1297 0.635239 47.4969 0.635239 45.7475V18.8644C0.635239 17.115 1.55041 15.4822 3.03755 14.6074L25.8595 1.13672C27.2895 0.320313 29.2342 0.320313 30.6642 1.13672L53.486 14.6074C54.9732 15.4822 55.8884 17.115 55.8884 18.8644V45.7475C55.8884 47.4969 54.9732 49.1297 53.486 50.0045L30.6642 63.4752C29.9778 63.7668 29.1198 64 28.2618 64Z" fill="#5FA04E"/>
<path d="M35.3543 45.5142C25.3447 45.5142 23.2856 40.849 23.2856 36.8836C23.2856 36.5338 23.5716 36.1839 23.9719 36.1839H26.9462C27.2894 36.1839 27.5754 36.4171 27.5754 36.767C28.033 39.8576 29.3486 41.3739 35.4115 41.3739C40.2161 41.3739 42.2753 40.2659 42.2753 37.6417C42.2753 36.1256 41.7033 35.0175 34.2103 34.2594C27.9758 33.618 24.0864 32.2185 24.0864 27.1451C24.0864 22.4215 27.9758 19.6225 34.4964 19.6225C41.8177 19.6225 45.4211 22.1883 45.8787 27.7865C45.8787 27.9615 45.8215 28.1364 45.7071 28.3114C45.5928 28.428 45.4211 28.5446 45.2495 28.5446H42.2181C41.932 28.5446 41.6461 28.3114 41.5889 28.0198C40.9025 24.8125 39.1294 23.7628 34.4392 23.7628C29.1769 23.7628 28.5478 25.6289 28.5478 27.0284C28.5478 28.7195 29.2914 29.2444 36.3839 30.1774C43.4192 31.1105 46.7367 32.4517 46.7367 37.4668C46.7367 42.5985 42.5612 45.5142 35.3543 45.5142Z" fill="#5FA04E"/>
</g>
<defs>
<clipPath id="clip0_316_295">
<rect width="56.32" height="64" fill="white" transform="translate(0.00235176)"/>
</clipPath>
</defs>
</svg>
