<svg width="71" height="64" viewBox="0 0 71 64" fill="none" xmlns="http://www.w3.org/2000/svg">
<g clip-path="url(#clip0_316_277)">
<path d="M35.8312 38.7725C39.5035 38.7725 42.4805 35.7403 42.4805 32C42.4805 28.2597 39.5035 25.2275 35.8312 25.2275C32.1588 25.2275 29.1818 28.2597 29.1818 32C29.1818 35.7403 32.1588 38.7725 35.8312 38.7725Z" fill="#087EA4"/>
<path d="M35.8312 47.2381C54.1928 47.2381 69.0779 40.4158 69.0779 32C69.0779 23.5843 54.1928 16.7619 35.8312 16.7619C17.4695 16.7619 2.58441 23.5843 2.58441 32C2.58441 40.4158 17.4695 47.2381 35.8312 47.2381Z" stroke="#087EA4" stroke-width="3"/>
<path d="M22.8745 39.6191C32.0554 55.8152 45.2988 65.5336 52.4545 61.3257C59.6103 57.1179 57.9686 40.5771 48.7878 24.381C39.607 8.18481 26.3635 -1.5336 19.2078 2.67429C12.052 6.88217 13.6937 23.4229 22.8745 39.6191Z" stroke="#087EA4" stroke-width="3"/>
<path d="M22.8745 24.381C13.6937 40.5771 12.052 57.1179 19.2078 61.3257C26.3635 65.5336 39.607 55.8152 48.7878 39.6191C57.9686 23.4229 59.6103 6.88217 52.4545 2.67429C45.2988 -1.5336 32.0554 8.18481 22.8745 24.381Z" stroke="#087EA4" stroke-width="3"/>
</g>
<defs>
<clipPath id="clip0_316_277">
<rect width="69.8182" height="64" fill="white" transform="translate(0.922073)"/>
</clipPath>
</defs>
</svg>
