<svg width="65" height="64" viewBox="0 0 65 64" fill="none" xmlns="http://www.w3.org/2000/svg">
<path d="M53.5845 34.608C51.5339 34.6187 49.7579 35.1107 48.2699 35.8453C47.7259 34.7587 47.1739 33.8027 47.0819 33.092C46.9739 32.2627 46.8485 31.7667 46.9792 30.7787C47.1099 29.7907 47.6819 28.3907 47.6739 28.2853C47.6659 28.18 47.5459 27.6773 46.3632 27.668C45.1805 27.66 44.1685 27.896 44.0499 28.208C43.9312 28.52 43.7032 29.2227 43.5619 29.956C43.3552 31.028 41.2005 34.8533 39.9779 36.8533C39.5779 36.072 39.2379 35.384 39.1672 34.84C39.0592 34.0107 38.9339 33.5147 39.0645 32.5267C39.1952 31.5387 39.7672 30.1387 39.7592 30.0333C39.7512 29.928 39.6312 29.4253 38.4485 29.416C37.2659 29.408 36.2539 29.644 36.1352 29.956C36.0165 30.268 35.8885 30.9973 35.6472 31.704C35.4045 32.4093 32.5419 38.7893 31.7912 40.444C31.4085 41.2867 31.0765 41.964 30.8419 42.4253L30.8405 42.4227C30.8405 42.4227 30.8259 42.4533 30.8019 42.5053C30.6005 42.8987 30.4819 43.116 30.4819 43.116C30.4819 43.116 30.4832 43.1187 30.4859 43.124C30.3259 43.4133 30.1552 43.6813 30.0712 43.6813C30.0125 43.6813 29.8939 42.912 30.0965 41.856C30.5232 39.6427 31.5459 36.192 31.5365 36.072C31.5312 36.0107 31.7272 35.4093 30.8685 35.0947C30.0339 34.7893 29.7365 35.2987 29.6605 35.3C29.5872 35.3013 29.5325 35.48 29.5325 35.48C29.5325 35.48 30.4619 31.5987 27.7592 31.5987C26.0685 31.5987 23.7272 33.448 22.5739 35.124C21.8459 35.5213 20.2872 36.372 18.6352 37.28C18.0005 37.6293 17.3525 37.9853 16.7379 38.324C16.6965 38.2773 16.6539 38.232 16.6112 38.1853C13.3325 34.688 7.27387 32.2147 7.52987 27.512C7.62321 25.8027 8.21787 21.3013 19.1739 15.8427C28.1485 11.3707 35.3339 12.6013 36.5752 15.328C38.3485 19.2253 32.7352 26.4667 23.4152 27.512C19.8645 27.9107 17.9939 26.5333 17.5285 26.0213C17.0392 25.4813 16.9659 25.4573 16.7832 25.5587C16.4859 25.724 16.6739 26.2 16.7832 26.484C17.0619 27.208 18.2032 28.492 20.1499 29.132C21.8632 29.6947 26.0325 30.0027 31.0739 28.052C36.7219 25.868 41.1312 19.7907 39.8352 14.712C38.5179 9.54667 29.9525 7.848 21.8459 10.728C17.0152 12.4427 11.7925 15.1333 8.03654 18.6453C3.57121 22.8213 2.85921 26.4573 3.15254 27.976C4.19521 33.3733 11.6339 36.888 14.6125 39.492C14.4659 39.5733 14.3272 39.6493 14.2019 39.7187C12.7085 40.4573 7.03787 43.4253 5.61921 46.56C4.00987 50.116 5.87521 52.668 7.10987 53.012C10.9352 54.076 14.8605 52.1613 16.9712 49.0147C19.0805 45.8693 18.8232 41.772 17.8552 39.9027C17.8432 39.88 17.8299 39.8573 17.8179 39.8333C18.2032 39.6053 18.5965 39.3733 18.9859 39.144C19.7459 38.6973 20.4925 38.2813 21.1392 37.9293C20.7765 38.9213 20.5112 40.112 20.3739 41.8307C20.2112 43.8493 21.0392 46.4587 22.1219 47.4853C22.5992 47.9373 23.1725 47.948 23.5352 47.948C24.7952 47.948 25.3699 46.9 26.0032 45.66C26.7792 44.14 27.4685 42.3693 27.4685 42.3693C27.4685 42.3693 26.6045 47.1507 28.9592 47.1507C29.8179 47.1507 30.6805 46.0373 31.0659 45.4707C31.0672 45.4773 31.0672 45.48 31.0672 45.48C31.0672 45.48 31.0899 45.4427 31.1339 45.3693C31.2232 45.2333 31.2739 45.1467 31.2739 45.1467C31.2739 45.1467 31.2752 45.1373 31.2779 45.1213C31.6232 44.5227 32.3885 43.1573 33.5352 40.9053C35.0179 37.996 36.4392 34.3507 36.4392 34.3507C36.4392 34.3507 36.5712 35.2413 37.0045 36.716C37.2592 37.5827 37.8005 38.5413 38.2285 39.4613C37.8845 39.9387 37.6739 40.212 37.6739 40.212C37.6739 40.212 37.6752 40.2173 37.6792 40.2267C37.4045 40.592 37.0965 40.9853 36.7739 41.3693C35.6032 42.7627 34.2099 44.3547 34.0232 44.8133C33.8032 45.3547 33.8552 45.752 34.2805 46.0733C34.5912 46.3067 35.1432 46.344 35.7205 46.3053C36.7725 46.2347 37.5112 45.9733 37.8765 45.8147C38.4459 45.6133 39.1085 45.2973 39.7299 44.84C40.8779 43.996 41.5699 42.7893 41.5032 41.1893C41.4659 40.308 41.1859 39.4347 40.8299 38.6107C40.9339 38.4613 41.0379 38.3093 41.1432 38.1573C42.9525 35.512 44.3565 32.6053 44.3565 32.6053C44.3565 32.6053 44.4885 33.496 44.9219 34.9707C45.1405 35.716 45.5739 36.5307 45.9632 37.328C44.2619 38.7107 43.2072 40.3173 42.8405 41.3707C42.1632 43.32 42.6939 44.2027 43.6885 44.404C44.1392 44.4947 44.7765 44.288 45.2552 44.0853C45.8512 43.888 46.5672 43.5587 47.2365 43.0667C48.3845 42.2227 49.4885 41.0413 49.4219 39.4427C49.3912 38.7147 49.1939 37.992 48.9259 37.2987C50.3685 36.6973 52.2352 36.364 54.6139 36.6413C59.7165 37.2373 60.7165 40.4227 60.5259 41.756C60.3339 43.0893 59.2645 43.8227 58.9059 44.044C58.5485 44.2653 58.4392 44.3427 58.4685 44.5067C58.5125 44.7453 58.6779 44.7373 58.9832 44.6853C59.4032 44.6147 61.6619 43.6013 61.7592 41.14C61.8805 38.012 58.8872 34.58 53.5845 34.608ZM14.2552 47.8667C12.5645 49.7107 10.2045 50.4067 9.19121 49.82C8.09787 49.1867 8.53121 46.472 10.6045 44.5147C11.8685 43.3227 13.5005 42.224 14.5832 41.548C14.8299 41.4 15.1912 41.1827 15.6312 40.9187C15.7045 40.8773 15.7459 40.8547 15.7459 40.8547L15.7445 40.852C15.8299 40.8013 15.9165 40.7493 16.0059 40.6947C16.7619 43.48 16.0299 45.932 14.2552 47.8667ZM26.5685 39.4973C25.9805 40.932 24.7485 44.604 23.9979 44.4067C23.3539 44.2373 22.9619 41.4467 23.8699 38.7C24.3259 37.3173 25.3019 35.6653 25.8752 35.024C26.7979 33.992 27.8139 33.6547 28.0605 34.0733C28.3739 34.6067 26.9379 38.5973 26.5685 39.4973ZM36.7405 44.3507C36.4912 44.4813 36.2619 44.5627 36.1565 44.5C36.0779 44.4533 36.2592 44.2813 36.2592 44.2813C36.2592 44.2813 37.5312 42.912 38.0325 42.2893C38.3245 41.9267 38.6619 41.496 39.0299 41.016C39.0325 41.064 39.0339 41.112 39.0339 41.1587C39.0312 42.7987 37.4472 43.9053 36.7405 44.3507ZM44.5765 42.564C44.3899 42.432 44.4219 42.004 45.0339 40.6693C45.2739 40.1453 45.8232 39.264 46.7752 38.4213C46.8859 38.768 46.9525 39.1 46.9512 39.4093C46.9392 41.4733 45.4672 42.244 44.5765 42.564Z" fill="#F06292"/>
</svg>
