<svg width="106" height="64" viewBox="0 0 106 64" fill="none" xmlns="http://www.w3.org/2000/svg">
<g clip-path="url(#clip0_316_324)">
<mask id="mask0_316_324" style="mask-type:luminance" maskUnits="userSpaceOnUse" x="0" y="0" width="106" height="63">
<path d="M0.350586 0H105.078V62.8364H0.350586V0Z" fill="white"/>
</mask>
<g mask="url(#mask0_316_324)">
<path fill-rule="evenodd" clip-rule="evenodd" d="M52.7142 0C38.7506 0 30.0233 6.98182 26.5324 20.9455C31.7688 13.9636 37.8779 11.3455 44.8597 13.0909C48.8432 14.0858 51.6902 16.9775 54.8417 20.1755C59.9753 25.3867 65.9176 31.4182 78.896 31.4182C92.8597 31.4182 101.587 24.4364 105.078 10.4727C99.8415 17.4545 93.7324 20.0727 86.7506 18.3273C82.7671 17.3324 79.92 14.4407 76.7685 11.2427C71.6349 6.03151 65.6926 0 52.7142 0ZM26.5324 31.4182C12.5688 31.4182 3.84149 38.4 0.350586 52.3636C5.58695 45.3818 11.696 42.7636 18.6779 44.5091C22.6614 45.5059 25.5084 48.3956 28.6599 51.5937C33.7935 56.8048 39.7358 62.8364 52.7142 62.8364C66.6779 62.8364 75.4051 55.8545 78.896 41.8909C73.6597 48.8727 67.5506 51.4909 60.5688 49.7455C56.5853 48.7505 53.7382 45.8589 50.5867 42.6608C45.4531 37.4497 39.5108 31.4182 26.5324 31.4182Z" fill="#38BDF8"/>
</g>
</g>
<defs>
<clipPath id="clip0_316_324">
<rect width="104.727" height="64" fill="white" transform="translate(0.350586)"/>
</clipPath>
</defs>
</svg>
